<?xml version="1.0" standalone="no"?>
<!DOCTYPE svg PUBLIC "-//W3C//DTD SVG 20010904//EN"
 "http://www.w3.org/TR/2001/REC-SVG-20010904/DTD/svg10.dtd">
<svg version="1.0" xmlns="http://www.w3.org/2000/svg"
 width="512.000000pt" height="512.000000pt" viewBox="0 0 512.000000 512.000000"
 preserveAspectRatio="xMidYMid meet">
<metadata>
Created by potrace 1.11, written by Peter Selinger 2001-2013
</metadata>
<g transform="translate(0.000000,512.000000) scale(0.100000,-0.100000)"
fill="#000000" stroke="none">
<path d="M2437 4214 c-1 -1 -27 -4 -57 -8 -82 -9 -131 -16 -175 -28 -22 -5
-47 -11 -56 -13 -54 -11 -219 -73 -308 -117 -95 -47 -233 -133 -305 -190 -37
-30 -203 -193 -244 -240 -45 -53 -145 -195 -173 -248 -13 -25 -27 -47 -30 -50
-3 -3 -29 -59 -57 -125 -50 -118 -95 -269 -106 -356 -3 -24 -8 -54 -10 -65 -5
-26 -8 -92 -7 -162 l1 -52 153 6 c83 3 154 8 156 10 3 2 4 99 4 214 -1 116 0
210 1 210 3 0 230 -228 366 -367 28 -29 54 -53 58 -53 4 0 202 195 441 434
l434 434 -129 132 c-71 73 -167 170 -212 216 -46 46 -80 85 -75 86 4 1 100 2
213 2 l205 1 -3 65 c-3 87 -9 231 -11 252 -1 13 -9 16 -37 15 -20 -1 -36 -3
-37 -3z"/>
<path d="M2537 4141 c2 -42 4 -116 6 -166 l3 -90 209 -3 c115 -2 211 -5 213
-7 2 -2 -91 -97 -207 -212 -116 -114 -211 -211 -211 -216 0 -7 15 -23 290
-304 l159 -162 575 0 c450 0 576 3 576 12 0 20 -171 356 -213 418 -20 31 -37
61 -37 68 0 6 -4 11 -8 11 -5 0 -18 17 -30 38 -12 20 -35 52 -52 71 -16 18
-30 37 -30 41 0 4 -37 46 -83 93 -161 164 -433 338 -627 400 -83 26 -87 27
-158 41 -13 3 -31 7 -40 10 -9 3 -38 8 -64 11 -27 3 -69 8 -94 11 -25 3 -76 7
-113 8 l-67 4 3 -77z"/>
<path d="M1117 2553 c-2 -1 -49 -3 -106 -4 l-103 -1 6 -112 c6 -102 14 -163
31 -241 101 -471 446 -899 910 -1127 65 -32 191 -83 230 -94 154 -40 158 -41
225 -50 25 -3 55 -7 67 -9 25 -4 111 -7 165 -6 l37 1 -5 103 c-3 56 -7 127 -8
157 l-2 55 -218 5 -218 5 104 102 c56 56 154 152 217 213 62 61 111 113 110
115 -32 36 -884 885 -888 885 -3 0 -102 -95 -220 -210 -118 -116 -218 -210
-223 -210 -4 0 -8 28 -9 63 -1 65 -8 241 -12 317 l-3 44 -42 1 c-24 0 -44 0
-45 -2z"/>
<path d="M3110 2120 l-65 -5 -185 -189 c-102 -104 -201 -206 -222 -227 l-36
-37 214 -211 215 -211 -38 -1 c-21 0 -116 -1 -210 -2 -95 0 -174 -3 -174 -7
-2 -7 -7 -122 -11 -233 l-4 -89 101 6 c108 6 152 12 231 27 28 5 64 12 80 15
32 5 87 22 119 35 11 5 44 18 73 29 166 64 398 221 538 366 45 46 80 84 77 84
-2 0 1 6 7 13 43 51 58 71 105 142 71 109 124 205 185 332 28 60 56 118 62
130 6 13 9 25 6 28 -3 3 -122 5 -264 5 -143 0 -275 0 -294 0 -156 4 -457 4
-510 0z"/>
</g>
</svg>
